<svg xmlns="http://www.w3.org/2000/svg" viewBox="0 0 500 250"><g id="Layer_1" data-name="Layer 1"><path d="M107.37,126.86a28.08,28.08,0,0,1-12.09,2.35q-10.14,0-16.61-5.75t-6.48-18q0-12.31,6.43-18t16.66-5.66A28.22,28.22,0,0,1,107.6,84.3a18.21,18.21,0,0,1,8.14,8.33l-12.31,6.79Q101.35,93,95,93q-4.26,0-6.38,2.77t-2.13,9.73q0,6.89,2.17,9.73A7.48,7.48,0,0,0,95,118.07a8.26,8.26,0,0,0,4.89-1.35,10.29,10.29,0,0,0,3.17-4l12.4,6.34A18.74,18.74,0,0,1,107.37,126.86Z"/><path d="M135.16,126.81a19.31,19.31,0,0,1-8.46-7.7q-3.27-5.3-3.26-13.62T126.7,92a19.34,19.34,0,0,1,8.46-7.69,26.82,26.82,0,0,1,11.37-2.4,26.49,26.49,0,0,1,11.31,2.4A19.42,19.42,0,0,1,166.26,92q3.27,5.3,3.26,13.54t-3.21,13.62a19.06,19.06,0,0,1-8.42,7.7,28.11,28.11,0,0,1-22.73,0Zm17.34-11.36q2.72-2.62,2.72-10t-2.72-9.92a8.5,8.5,0,0,0-6-2.58,8.6,8.6,0,0,0-6.07,2.58q-2.72,2.58-2.72,9.92t2.72,10a8.52,8.52,0,0,0,6.07,2.62A8.42,8.42,0,0,0,152.5,115.45Z"/><path d="M213,87.06q5,5.11,5,15.62v25.53H204.1V102.68c0-3.38-.4-5.82-1.18-7.33s-2.39-2.27-4.8-2.27a8.72,8.72,0,0,0-8.24,5v30.15H176V82.94h9.32l2.18,4.35q4.6-5.34,12.4-5.34Q208,82,213,87.06Z"/><path d="M269.82,55.78v72.43h-9.77l-2.54-4a14.32,14.32,0,0,1-4.71,3.67,13.2,13.2,0,0,1-5.79,1.31q-9.6,0-15-5.84t-5.38-17.88Q226.64,82,246.1,82A15,15,0,0,1,256,85.57V55.78ZM256,114.45V97.7q-2.53-4.62-7.24-4.62t-6.47,3q-1.77,3-1.77,9.42,0,6.24,2.17,9.41c1.45,2.12,3.77,3.17,7,3.17A7,7,0,0,0,256,114.45Z"/><path d="M317.71,130.3l-5.62-5.53a21.69,21.69,0,0,1-13.58,4.44q-10.14,0-15.12-3.62t-5-11.23q0-7.6,5.16-11.18t16.75-3.58h6.16V99A6.29,6.29,0,0,0,305,94.49q-1.5-1.59-5.21-1.59a18.74,18.74,0,0,0-6.79,1,11.85,11.85,0,0,0-4.44,3l-8.42-8.06q7.06-7.07,20.56-7.06,8.87,0,14.26,3.53a11.47,11.47,0,0,1,5.38,10.23v21.19l5.62,5.61Zm-24.27-13q1.63,1,6.61,1a9.84,9.84,0,0,0,6.43-2v-7.42H303.4a28.5,28.5,0,0,0-7.69.77c-1.69.51-2.77,1.15-3.22,1.9a5.28,5.28,0,0,0-.68,2.76A3.28,3.28,0,0,0,293.44,117.35Z"/><path d="M111.3,151q5,5.12,5,15.61v25.54H102.42V166.6q0-5.07-1.17-7.33T96.45,157a8.71,8.71,0,0,0-8.24,5v30.15H74.36V146.87h9.32l2.17,4.34q4.62-5.34,12.41-5.34Q106.32,145.87,111.3,151Z"/><path d="M159.22,190.78a27.92,27.92,0,0,1-12.08,2.35q-10.14,0-16.62-5.75t-6.47-18q0-12.32,6.43-18t16.66-5.66a28.15,28.15,0,0,1,12.31,2.44,18.18,18.18,0,0,1,8.15,8.33l-12.31,6.79q-2.08-6.42-8.43-6.42a7.56,7.56,0,0,0-6.38,2.76q-2.13,2.76-2.13,9.73t2.18,9.73a7.48,7.48,0,0,0,6.33,2.85,8.22,8.22,0,0,0,4.89-1.35,10.2,10.2,0,0,0,3.17-4L167.33,183A18.82,18.82,0,0,1,159.22,190.78Z"/><path d="M207.89,192.14l-1.54-3.72Q202,193,194.22,193q-8.79,0-13.22-5t-4.44-15.75V146.78h13.85v22.81c0,4.17.52,7.26,1.54,9.28a5.2,5.2,0,0,0,5,3,9.94,9.94,0,0,0,7.34-2.62v-32.5h13.85V183l.09,9.15Z"/><path d="M255.52,145.86a15,15,0,0,0-9.87,3.63V137.1c-5.75-.26-10.29-2.18-13.62-5.81l-.24-.28v61.13h9.78l2.53-4a14.22,14.22,0,0,0,4.72,3.66,13,13,0,0,0,5.79,1.31q9.6,0,15-5.84T275,169.41Q275,145.86,255.52,145.86Zm3.43,33c-1.45,2.12-3.77,3.17-7,3.17a7,7,0,0,1-6.32-3.62V161.62c1.68-3.07,4.1-4.62,7.23-4.62s5.29,1,6.48,3,1.77,5.14,1.77,9.42S260.4,176.72,259,178.82Z"/><path d="M320,194.22l-5.61-5.53a21.71,21.71,0,0,1-13.58,4.44q-10.14,0-15.12-3.62t-5-11.23q0-7.6,5.16-11.18t16.75-3.57h6.15v-.64a6.27,6.27,0,0,0-1.49-4.48c-1-1.06-2.73-1.58-5.21-1.58a18.57,18.57,0,0,0-6.79,1,11.6,11.6,0,0,0-4.43,3l-8.42-8.06q7-7.07,20.55-7.06,8.87,0,14.26,3.53a11.49,11.49,0,0,1,5.39,10.23v21.19l5.61,5.61ZM295.7,181.27q1.62,1,6.6,1a9.85,9.85,0,0,0,6.43-2v-7.42h-3.07a28.58,28.58,0,0,0-7.7.77c-1.69.51-2.76,1.15-3.21,1.9a5.23,5.23,0,0,0-.68,2.76A3.26,3.26,0,0,0,295.7,181.27Z"/><path d="M355.53,157.91v17.75q0,4,1.13,5.43a3.81,3.81,0,0,0,3.21,1.45,28.49,28.49,0,0,0,5.48-.64,36.29,36.29,0,0,0,3.94-.9v11.14c-.12,0-1.22.16-3.3.49a56,56,0,0,1-8.38.5q-7.42,0-11.68-2.53t-4.25-9.51V157.91H329v-11h12.68v-16.3h13.85v16.3h15.3v11Z"/><path d="M390.15,190.73a19.31,19.31,0,0,1-8.47-7.69q-3.26-5.29-3.26-13.63t3.26-13.54a19.31,19.31,0,0,1,8.47-7.69,28,28,0,0,1,22.68,0,19.47,19.47,0,0,1,8.42,7.69q3.25,5.31,3.26,13.54T421.29,183a19.09,19.09,0,0,1-8.42,7.69,28.09,28.09,0,0,1-22.72,0Zm17.33-11.36q2.73-2.62,2.72-10t-2.72-9.91a8.5,8.5,0,0,0-6-2.58,8.6,8.6,0,0,0-6.07,2.58q-2.71,2.58-2.71,9.91t2.71,10a8.52,8.52,0,0,0,6.07,2.62A8.42,8.42,0,0,0,407.48,179.37Z"/><path d="M473.47,146.37a13.61,13.61,0,0,1,3,1.4L472.75,159a6.15,6.15,0,0,0-2.31-1.13,12.8,12.8,0,0,0-4.3-.68,18.73,18.73,0,0,0-6.07.9,8.79,8.79,0,0,0-4,2.54v20.46h12.77v11H433v-11h9.24V157.91H433v-11h18.56l2.36,4.61a16.56,16.56,0,0,1,6-4.21,20.68,20.68,0,0,1,8-1.49A18.62,18.62,0,0,1,473.47,146.37Z"/><path d="M52.52,122.26a9.85,9.85,0,0,0-13.72,0,9.7,9.7,0,0,0,6.83,16.56A9.29,9.29,0,0,0,52.52,136a9.84,9.84,0,0,0,0-13.73Z"/><polygon points="65.02 180.49 65.02 191.86 24.41 191.86 24.49 180.45 38.73 180.45 38.73 156.62 23.54 156.62 23.54 145.25 53 145.25 53 180.49 65.02 180.49"/></g></svg>