<svg xmlns="http://www.w3.org/2000/svg" viewBox="0 0 500 250"><g id="Layer_1" data-name="Layer 1"><path d="M244.21,124a17.13,17.13,0,0,1-7.4,1.44,14.76,14.76,0,0,1-10.16-3.52q-4-3.52-4-11t3.93-11a14.84,14.84,0,0,1,10.19-3.46A17.28,17.28,0,0,1,244.34,98a11.16,11.16,0,0,1,5,5.1l-7.53,4.15q-1.28-3.93-5.15-3.93a4.62,4.62,0,0,0-3.91,1.69q-1.31,1.7-1.3,6t1.33,6a4.59,4.59,0,0,0,3.88,1.74,5,5,0,0,0,3-.83,6.28,6.28,0,0,0,1.94-2.43l7.58,3.87A11.44,11.44,0,0,1,244.21,124Z"/><path d="M261.21,124a11.89,11.89,0,0,1-5.18-4.71,15.7,15.7,0,0,1-2-8.34,15.6,15.6,0,0,1,2-8.28,11.81,11.81,0,0,1,5.18-4.7,16.37,16.37,0,0,1,7-1.47,16.17,16.17,0,0,1,6.92,1.47,11.81,11.81,0,0,1,5.16,4.7,15.69,15.69,0,0,1,2,8.28,15.89,15.89,0,0,1-2,8.34,11.72,11.72,0,0,1-5.15,4.71,17.16,17.16,0,0,1-13.9,0ZM271.82,117c1.1-1.07,1.66-3.1,1.66-6.1s-.56-5-1.66-6.06a5.09,5.09,0,0,0-7.37,0q-1.67,1.58-1.66,6.06t1.66,6.1a5,5,0,0,0,7.37,0Z"/><path d="M308.81,99.64q3,3.14,3,9.56v15.62h-8.47V109.2a10.32,10.32,0,0,0-.72-4.49q-.72-1.38-2.94-1.38a5.32,5.32,0,0,0-5,3v18.45h-8.47V97.12h5.7l1.33,2.66a9.54,9.54,0,0,1,7.59-3.27A10.66,10.66,0,0,1,308.81,99.64Z"/><path d="M343.59,80.51v44.31h-6l-1.55-2.44a8.77,8.77,0,0,1-2.88,2.24,8,8,0,0,1-3.55.81q-5.86,0-9.16-3.58t-3.3-10.94q0-14.4,11.91-14.4a9.19,9.19,0,0,1,6,2.22V80.51Zm-8.47,35.89V106.15a4.86,4.86,0,0,0-4.44-2.82c-1.92,0-3.24.61-4,1.82a11.75,11.75,0,0,0-1.08,5.76,10.26,10.26,0,0,0,1.33,5.76,4.79,4.79,0,0,0,4.27,1.94A4.26,4.26,0,0,0,335.12,116.4Z"/><path d="M372.88,126.09l-3.43-3.38a13.31,13.31,0,0,1-8.31,2.72q-6.21,0-9.25-2.22t-3.05-6.87c0-3.1,1.06-5.38,3.16-6.84s5.52-2.19,10.25-2.19H366v-.38a3.83,3.83,0,0,0-.91-2.74,4.26,4.26,0,0,0-3.19-1,11.54,11.54,0,0,0-4.15.63,7.21,7.21,0,0,0-2.71,1.86l-5.15-4.93q4.32-4.32,12.57-4.32a15.68,15.68,0,0,1,8.72,2.16,7,7,0,0,1,3.3,6.26v13l3.43,3.43ZM358,118.17a8.74,8.74,0,0,0,4,.61,6,6,0,0,0,3.93-1.22V113h-1.88a17.66,17.66,0,0,0-4.71.47,3.33,3.33,0,0,0-2,1.16,3.23,3.23,0,0,0-.42,1.69A2,2,0,0,0,358,118.17Z"/><path d="M246.61,138.75q3,3.12,3,9.55v15.62h-8.48V148.3a10.27,10.27,0,0,0-.72-4.48,3,3,0,0,0-2.93-1.39,5.33,5.33,0,0,0-5,3v18.44H224V136.23h5.71l1.33,2.66a9.5,9.5,0,0,1,7.58-3.27A10.62,10.62,0,0,1,246.61,138.75Z"/><path d="M275.93,163.09a17.1,17.1,0,0,1-7.4,1.44A14.71,14.71,0,0,1,258.37,161q-4-3.51-4-11t3.93-11a14.89,14.89,0,0,1,10.19-3.46,17.21,17.21,0,0,1,7.54,1.5,11.12,11.12,0,0,1,5,5.09l-7.53,4.16q-1.27-3.93-5.15-3.93a4.64,4.64,0,0,0-3.91,1.68c-.86,1.13-1.3,3.12-1.3,6s.45,4.79,1.33,5.95a4.57,4.57,0,0,0,3.88,1.75,5.06,5.06,0,0,0,3-.83,6.39,6.39,0,0,0,1.94-2.44l7.59,3.88A11.55,11.55,0,0,1,275.93,163.09Z"/><path d="M305.7,163.92l-.94-2.27a9.73,9.73,0,0,1-7.42,2.83c-3.59,0-6.28-1-8.09-3s-2.72-5.24-2.72-9.64V136.17H295v14a13.07,13.07,0,0,0,.94,5.68,3.19,3.19,0,0,0,3.05,1.85,6,6,0,0,0,4.48-1.6V136.17H312v22.16l.05,5.59Z"/><path d="M334.84,135.61a9.15,9.15,0,0,0-6,2.22v-7.58a11.45,11.45,0,0,1-8.33-3.55l-.15-.17v37.4h6l1.55-2.44a8.61,8.61,0,0,0,2.89,2.24,7.92,7.92,0,0,0,3.54.8q5.88,0,9.17-3.58T346.74,150Q346.74,135.6,334.84,135.61Zm2.09,20.17a4.79,4.79,0,0,1-4.26,1.94,4.24,4.24,0,0,1-3.87-2.22V145.25a4.84,4.84,0,0,1,4.43-2.82c1.91,0,3.23.62,4,1.83a11.75,11.75,0,0,1,1.08,5.76A10.19,10.19,0,0,1,336.93,155.78Z"/><path d="M374.26,165.2l-3.43-3.38a13.3,13.3,0,0,1-8.31,2.71q-6.21,0-9.25-2.21t-3-6.87q0-4.65,3.16-6.84t10.25-2.19h3.76V146a3.84,3.84,0,0,0-.91-2.74,4.26,4.26,0,0,0-3.19-1,11.27,11.27,0,0,0-4.15.64,7.08,7.08,0,0,0-2.71,1.85l-5.16-4.93q4.32-4.32,12.58-4.32a15.68,15.68,0,0,1,8.72,2.16,7,7,0,0,1,3.3,6.26v13l3.43,3.44Zm-14.84-7.93a8.74,8.74,0,0,0,4,.61,6,6,0,0,0,3.93-1.21v-4.55h-1.88a17.56,17.56,0,0,0-4.71.47,3.46,3.46,0,0,0-2,1.17,3.28,3.28,0,0,0-.41,1.69A2,2,0,0,0,359.42,157.27Z"/><path d="M396,143v10.86a5.68,5.68,0,0,0,.69,3.32,2.33,2.33,0,0,0,2,.89,17.67,17.67,0,0,0,3.35-.39,23.5,23.5,0,0,0,2.41-.55v6.81c-.08,0-.75.1-2,.31a34.74,34.74,0,0,1-5.13.3,14,14,0,0,1-7.14-1.55q-2.61-1.54-2.61-5.82V143h-7.75v-6.75h7.75v-10H396v10h9.36V143Z"/><path d="M417.2,163.06a11.84,11.84,0,0,1-5.18-4.71,18.24,18.24,0,0,1,0-16.61A11.84,11.84,0,0,1,417.2,137a16.37,16.37,0,0,1,6.95-1.47,16.17,16.17,0,0,1,6.92,1.47,11.88,11.88,0,0,1,5.15,4.71,15.57,15.57,0,0,1,2,8.28,15.85,15.85,0,0,1-2,8.33,11.72,11.72,0,0,1-5.15,4.71,17.16,17.16,0,0,1-13.9,0Zm10.6-6.95q1.67-1.61,1.66-6.09T427.8,144a5.18,5.18,0,0,0-3.65-1.57,5.24,5.24,0,0,0-3.71,1.57q-1.67,1.59-1.67,6.07t1.67,6.09a5.21,5.21,0,0,0,3.71,1.61A5.14,5.14,0,0,0,427.8,156.11Z"/><path d="M468.17,135.92a8.64,8.64,0,0,1,1.83.86l-2.27,6.87a3.79,3.79,0,0,0-1.41-.69,7.88,7.88,0,0,0-2.63-.42,11.41,11.41,0,0,0-3.72.56,5.27,5.27,0,0,0-2.43,1.55v12.51h7.81v6.76H443.41v-6.76h5.65V143h-5.65v-6.75h11.36l1.44,2.82a10.1,10.1,0,0,1,3.68-2.57,12.59,12.59,0,0,1,4.9-.92A11.4,11.4,0,0,1,468.17,135.92Z"/><path d="M212.36,125.39a5.73,5.73,0,0,1-1.71,4.18,5.93,5.93,0,0,1-8.39-8.39,5.91,5.91,0,0,1,10.1,4.21Z"/><polygon points="218.3 156.79 218.3 163.75 193.46 163.75 193.51 156.77 202.22 156.77 202.22 142.19 192.92 142.19 192.92 135.24 210.94 135.24 210.94 156.79 218.3 156.79"/><path d="M136.61,142a44.05,44.05,0,0,1-79.91,0,40.09,40.09,0,0,1,79.91,0Z"/><path d="M170.09,123.43A73.44,73.44,0,1,1,96.65,50,73.44,73.44,0,0,1,170.09,123.43Zm-73.44-52a52,52,0,1,0,52,52A52,52,0,0,0,96.65,71.43Z"/></g></svg>